<?xml version="1.0" encoding="utf-8"?>
<!-- Generator: Adobe Illustrator 16.0.0, SVG Export Plug-In . SVG Version: 6.00 Build 0)  -->
<!DOCTYPE svg PUBLIC "-//W3C//DTD SVG 1.1//EN" "http://www.w3.org/Graphics/SVG/1.1/DTD/svg11.dtd">
<svg version="1.1" id="Layer_1" xmlns="http://www.w3.org/2000/svg" xmlns:xlink="http://www.w3.org/1999/xlink" x="0px" y="0px"
	 width="800px" height="187.86px" viewBox="0 0 800 187.86" enable-background="new 0 0 800 187.86" xml:space="preserve">
<g>
	<g>
		<path fill="#FFFFFF" d="M230.483,72.627h0.549c4.004-6.43,13.383-18.225,32.943-18.225c30.555,0,43.958,26.003,43.958,66.722
			c0,35.658-12.332,66.736-53.857,66.736c-33.509,0-53.335-19.038-53.335-57.077V0h29.742V72.627z M254.076,166.963
			c19.025,0,22.244-24.948,22.244-45.839c0-23.028-2.414-47.702-22.244-47.702c-17.953,0-23.593,26.273-23.593,47.702
			C230.483,153.004,235.321,166.963,254.076,166.963z"/>
		<path fill="#FFFFFF" d="M325.341,0h29.74v184.919h-29.74V0z"/>
		<path fill="#FFFFFF" d="M472.186,182.746c-10.74,3.504-21.98,5.114-35.669,5.114c-41.246,0-64.29-26.528-64.29-73.418
			c0-35.649,16.075-60.041,54.668-60.041c32.407,0,48.499,20.633,48.499,51.706v7.253h-75.581c0,17.672,12.074,53.603,47.978,53.603
			c9.385,0,19.008-2.965,24.396-4.828V182.746z M447.267,95.4c0-8.032-4.019-21.978-22.539-21.978
			c-17.384,0-23.3,14.475-24.118,21.978H447.267z"/>
		<path fill="#FFFFFF" d="M556.592,84.413c-3.225-1.612-15.297-8.575-28.425-8.575c-9.088,0-19.839,4.292-19.839,11.793
			c0,16.873,56.031,25.454,56.031,61.91c0,26.248-20.126,38.319-48.265,38.319c-17.397,0-27.855-3.21-33.74-5.114v-25.721
			c8.584,3.748,20.354,7.784,32.409,7.784c7.242,0,21.976-1.345,21.976-11.526c0-15.011-54.935-27.614-54.935-61.367
			c0-23.852,18.224-37.515,45.838-37.515c12.574,0,22.77,3.215,28.949,4.826V84.413z"/>
		<path fill="#FFFFFF" d="M651.703,185.713c-8.052,1.335-16.344,2.147-24.395,2.147c-33.764,0-39.129-16.093-39.129-35.104V77.985
			h-24.915V57.362h24.915V27.064l29.758-17.947v48.245h37.796v20.623h-37.796v60.287c0,15.296,1.88,28.69,20.075,28.69
			c4.84,0,9.384-1.076,13.69-2.153V185.713z"/>
		<path fill="#FFFFFF" d="M726.988,170.152h-0.547c-4.021,8.334-12.835,17.708-33.208,17.708c-21.454,0-37.509-12.884-37.509-33.489
			c0-42.352,53.569-42.636,71.264-43.154V98.618c0-12.6-3.203-23.309-17.973-23.309c-16.338,0-19.542,10.987-19.542,19.568h-28.951
			c0-24.393,16.083-40.476,48.493-40.476c31.635,0,46.363,13.663,46.363,39.662v90.855h-28.391V170.152z M700.444,166.963
			c19.324,0,26.544-20.921,26.544-38.317c-19.314,0-42.33,5.874-42.33,23.028C684.658,161.576,690.259,166.963,700.444,166.963z"/>
	</g>
	<g>
		<path fill="#FFFFFF" d="M759.981,35.045h-7.147v-4.119h18.61v4.119h-7.142v24.262h-4.321V35.045z M774.647,30.927h7.826
			l4.696,22.306h0.203l4.799-22.306H800v28.38h-4.289v-25.64h-0.203l-5.58,25.64h-5.173l-5.581-25.64h-0.205v25.64h-4.321V30.927z"
			/>
	</g>
	<path fill="#FFFFFF" d="M46.662,91.061h17.156c5.405,0,9.825-4.417,9.825-9.829V64.063c0-5.409-4.419-9.82-9.825-9.82H46.662
		c-5.424,0-9.832,4.411-9.832,9.82v17.169C36.831,86.645,41.238,91.061,46.662,91.061z"/>
	<path fill="#FFFFFF" d="M137.472,91.061c5.398,0,9.831-4.417,9.831-9.829V64.063c0-5.409-4.433-9.82-9.831-9.82h-17.164
		c-5.405,0-9.841,4.411-9.841,9.82v17.169c0,5.412,4.436,9.829,9.841,9.829H137.472z"/>
	<path fill="#FFFFFF" d="M174.3,114.081h-17.164c-5.398,0-9.834,4.441-9.834,9.847v17.169c0,5.398-4.433,9.805-9.831,9.805h-90.81
		c-5.424,0-9.832-4.406-9.832-9.805v-17.169c0-5.405-4.433-9.847-9.844-9.847H9.823c-5.4,0-9.823,4.441-9.823,9.847v17.169
		c0,5.398,4.423,9.805,9.823,9.805h17.164c5.411,0,9.844,4.429,9.844,9.818v17.185c0,5.421,4.408,9.834,9.832,9.834h90.81
		c5.398,0,9.831-4.413,9.831-9.834V160.72c0-5.39,4.436-9.818,9.834-9.818H174.3c5.398,0,9.836-4.406,9.836-9.805v-17.169
		C184.137,118.522,179.698,114.081,174.3,114.081z"/>
</g>
<g>
</g>
<g>
</g>
<g>
</g>
<g>
</g>
<g>
</g>
<g>
</g>
<g>
</g>
<g>
</g>
<g>
</g>
<g>
</g>
<g>
</g>
<g>
</g>
<g>
</g>
<g>
</g>
<g>
</g>
</svg>
